<svg xmlns="http://www.w3.org/2000/svg" xmlns:xlink="http://www.w3.org/1999/xlink" width="200" zoomAndPan="magnify" viewBox="0 0 150 74.249996" height="99" preserveAspectRatio="xMidYMid meet" version="1.0"><defs><clipPath id="1a60088097"><path d="M 92 32 L 149.25 32 L 149.25 45 L 92 45 Z M 92 32 " clip-rule="nonzero"/></clipPath><clipPath id="280dc4cc33"><path d="M 107 39 L 149.25 39 L 149.25 72.765625 L 107 72.765625 Z M 107 39 " clip-rule="nonzero"/></clipPath><clipPath id="471eddfc84"><path d="M 96 39 L 149.25 39 L 149.25 63 L 96 63 Z M 96 39 " clip-rule="nonzero"/></clipPath><clipPath id="7770ed3b0f"><path d="M 0.75 0 L 93 0 L 93 64 L 0.75 64 Z M 0.75 0 " clip-rule="nonzero"/></clipPath><clipPath id="fd35caad17"><path d="M 92 32 L 149.25 32 L 149.25 45 L 92 45 Z M 92 32 " clip-rule="nonzero"/></clipPath><clipPath id="531dbbfd32"><path d="M 107 39 L 149.25 39 L 149.25 72.765625 L 107 72.765625 Z M 107 39 " clip-rule="nonzero"/></clipPath><clipPath id="adc4042a74"><path d="M 96 39 L 149.25 39 L 149.25 63 L 96 63 Z M 96 39 " clip-rule="nonzero"/></clipPath><clipPath id="503c591520"><path d="M 0.75 0 L 93 0 L 93 64 L 0.75 64 Z M 0.75 0 " clip-rule="nonzero"/></clipPath></defs><g clip-path="url(#1a60088097)"><path fill="#000000" d="M 99.757812 44.691406 C 99.773438 44.691406 99.792969 44.691406 99.8125 44.6875 L 148.5 41.003906 C 148.875 40.976562 149.167969 40.667969 149.175781 40.292969 C 149.183594 39.914062 148.90625 39.59375 148.535156 39.546875 L 93.652344 32.71875 C 93.375 32.683594 93.101562 32.808594 92.949219 33.042969 C 92.796875 33.277344 92.789062 33.574219 92.929688 33.816406 L 99.125 44.328125 C 99.257812 44.554688 99.5 44.691406 99.757812 44.691406 Z M 141.09375 40.097656 L 100.15625 43.195312 L 94.949219 34.355469 Z M 141.09375 40.097656 " fill-opacity="1" fill-rule="nonzero"/></g><g clip-path="url(#280dc4cc33)"><path fill="#000000" d="M 113.777344 72.765625 C 113.957031 72.765625 114.136719 72.699219 114.273438 72.574219 L 148.941406 40.8125 C 149.1875 40.585938 149.25 40.21875 149.085938 39.925781 C 148.925781 39.628906 148.585938 39.480469 148.261719 39.566406 L 108.050781 49.863281 C 107.863281 49.910156 107.699219 50.03125 107.601562 50.199219 C 107.503906 50.367188 107.472656 50.566406 107.523438 50.753906 L 113.066406 72.21875 C 113.128906 72.464844 113.320312 72.664062 113.566406 72.734375 C 113.636719 72.757812 113.707031 72.765625 113.777344 72.765625 Z M 145.792969 41.707031 L 114.179688 70.671875 L 109.125 51.097656 Z M 145.792969 41.707031 " fill-opacity="1" fill-rule="nonzero"/></g><path fill="#000000" d="M 97.691406 62.792969 C 97.738281 62.792969 97.785156 62.789062 97.832031 62.78125 L 110.699219 60.304688 C 110.898438 60.265625 111.074219 60.144531 111.179688 59.976562 C 111.289062 59.804688 111.320312 59.597656 111.269531 59.402344 L 108.945312 50.386719 C 108.875 50.128906 108.671875 49.925781 108.410156 49.859375 C 108.148438 49.796875 107.875 49.878906 107.691406 50.078125 L 97.152344 61.566406 C 96.9375 61.800781 96.898438 62.144531 97.050781 62.417969 C 97.183594 62.652344 97.429688 62.792969 97.691406 62.792969 Z M 109.65625 59.015625 L 99.730469 60.925781 L 107.859375 52.0625 Z M 109.65625 59.015625 " fill-opacity="1" fill-rule="nonzero"/><g clip-path="url(#471eddfc84)"><path fill="#000000" d="M 97.691406 62.792969 C 97.894531 62.792969 98.089844 62.710938 98.234375 62.554688 L 108.625 51.226562 L 148.625 40.980469 C 148.992188 40.886719 149.230469 40.527344 149.167969 40.152344 C 149.105469 39.78125 148.769531 39.511719 148.386719 39.542969 L 99.699219 43.230469 C 99.351562 43.257812 99.066406 43.527344 99.027344 43.875 L 96.960938 61.980469 C 96.925781 62.292969 97.097656 62.597656 97.386719 62.726562 C 97.484375 62.773438 97.589844 62.792969 97.691406 62.792969 Z M 140.1875 41.632812 L 108.050781 49.863281 C 107.910156 49.898438 107.789062 49.972656 107.691406 50.078125 L 98.675781 59.90625 L 100.417969 44.644531 Z M 140.1875 41.632812 " fill-opacity="1" fill-rule="nonzero"/></g><g clip-path="url(#7770ed3b0f)"><path fill="#000000" d="M 91.390625 63.660156 C 91.765625 63.660156 92.089844 63.371094 92.121094 62.988281 C 92.152344 62.585938 91.851562 62.234375 91.449219 62.199219 C 91.425781 62.199219 89.105469 62.003906 85.28125 61.390625 C 84.878906 61.328125 84.503906 61.597656 84.441406 61.996094 C 84.375 62.394531 84.648438 62.769531 85.046875 62.835938 C 88.9375 63.457031 91.234375 63.648438 91.328125 63.65625 C 91.347656 63.660156 91.371094 63.660156 91.390625 63.660156 Z M 79.015625 61.714844 C 79.355469 61.714844 79.664062 61.476562 79.734375 61.132812 C 79.816406 60.738281 79.5625 60.347656 79.164062 60.269531 C 77.148438 59.851562 75.109375 59.386719 73.101562 58.886719 C 72.707031 58.789062 72.308594 59.027344 72.210938 59.417969 C 72.113281 59.8125 72.351562 60.207031 72.746094 60.304688 C 74.773438 60.8125 76.832031 61.28125 78.867188 61.699219 C 78.917969 61.710938 78.96875 61.714844 79.015625 61.714844 Z M 66.894531 58.691406 C 67.214844 58.691406 67.503906 58.484375 67.601562 58.164062 C 67.714844 57.777344 67.492188 57.371094 67.105469 57.257812 C 65.109375 56.671875 63.117188 56.039062 61.183594 55.378906 C 60.800781 55.246094 60.382812 55.449219 60.25 55.832031 C 60.117188 56.214844 60.324219 56.632812 60.707031 56.761719 C 62.660156 57.429688 64.675781 58.066406 66.6875 58.660156 C 66.757812 58.679688 66.828125 58.691406 66.894531 58.691406 Z M 55.085938 54.652344 C 55.378906 54.652344 55.652344 54.476562 55.765625 54.1875 C 55.914062 53.8125 55.730469 53.386719 55.351562 53.238281 C 53.414062 52.476562 51.492188 51.664062 49.636719 50.828125 C 49.265625 50.664062 48.832031 50.828125 48.664062 51.195312 C 48.5 51.5625 48.660156 51.996094 49.03125 52.164062 C 50.910156 53.007812 52.855469 53.828125 54.816406 54.597656 C 54.902344 54.632812 54.996094 54.652344 55.085938 54.652344 Z M 43.714844 49.519531 C 43.980469 49.519531 44.234375 49.375 44.367188 49.125 C 44.550781 48.765625 44.410156 48.324219 44.050781 48.136719 C 42.199219 47.183594 40.375 46.179688 38.625 45.148438 C 38.277344 44.941406 37.828125 45.058594 37.621094 45.40625 C 37.414062 45.753906 37.53125 46.203125 37.882812 46.410156 C 39.652344 47.453125 41.5 48.472656 43.378906 49.4375 C 43.484375 49.492188 43.601562 49.519531 43.714844 49.519531 Z M 32.980469 43.183594 C 33.214844 43.183594 33.445312 43.074219 33.589844 42.863281 C 33.816406 42.527344 33.726562 42.074219 33.390625 41.847656 C 31.667969 40.683594 29.984375 39.464844 28.386719 38.222656 C 28.066406 37.972656 27.605469 38.03125 27.355469 38.347656 C 27.105469 38.667969 27.164062 39.128906 27.484375 39.375 C 29.105469 40.636719 30.816406 41.875 32.570312 43.058594 C 32.695312 43.144531 32.839844 43.183594 32.980469 43.183594 Z M 23.15625 35.535156 C 23.359375 35.535156 23.558594 35.457031 23.703125 35.292969 C 23.972656 34.996094 23.949219 34.53125 23.648438 34.261719 C 22.109375 32.875 20.621094 31.429688 19.226562 29.964844 C 18.949219 29.671875 18.484375 29.660156 18.1875 29.9375 C 17.894531 30.214844 17.882812 30.679688 18.164062 30.972656 C 19.585938 32.464844 21.097656 33.9375 22.664062 35.347656 C 22.808594 35.472656 22.984375 35.535156 23.15625 35.535156 Z M 14.59375 26.523438 C 14.753906 26.523438 14.917969 26.472656 15.054688 26.363281 C 15.367188 26.109375 15.417969 25.648438 15.164062 25.332031 C 13.875 23.734375 12.644531 22.066406 11.507812 20.382812 C 11.28125 20.046875 10.828125 19.960938 10.492188 20.183594 C 10.15625 20.410156 10.066406 20.863281 10.292969 21.199219 C 11.449219 22.917969 12.707031 24.617188 14.023438 26.25 C 14.167969 26.429688 14.378906 26.523438 14.59375 26.523438 Z M 7.65625 16.226562 C 7.777344 16.226562 7.898438 16.195312 8.011719 16.132812 C 8.363281 15.9375 8.492188 15.492188 8.296875 15.140625 C 7.3125 13.355469 6.390625 11.503906 5.5625 9.636719 C 5.398438 9.269531 4.964844 9.101562 4.59375 9.265625 C 4.222656 9.425781 4.058594 9.859375 4.222656 10.230469 C 5.066406 12.136719 6.003906 14.027344 7.015625 15.847656 C 7.148438 16.089844 7.398438 16.226562 7.65625 16.226562 Z M 2.625 4.882812 C 2.703125 4.882812 2.78125 4.871094 2.863281 4.84375 C 3.246094 4.714844 3.449219 4.296875 3.316406 3.914062 C 2.945312 2.832031 2.59375 1.71875 2.273438 0.613281 C 2.160156 0.222656 1.753906 0 1.363281 0.113281 C 0.976562 0.226562 0.75 0.632812 0.863281 1.019531 C 1.191406 2.148438 1.550781 3.28125 1.929688 4.390625 C 2.035156 4.691406 2.320312 4.882812 2.625 4.882812 Z M 2.625 4.882812 " fill-opacity="1" fill-rule="nonzero"/></g><path fill="#000000" d="M 40.929688 60.175781 C 41.207031 60.175781 41.472656 60.019531 41.597656 59.75 C 41.765625 59.382812 41.601562 58.949219 41.234375 58.78125 C 33.648438 55.316406 27.273438 51.550781 21.742188 47.269531 C 20.070312 45.976562 18.472656 44.625 16.992188 43.253906 C 16.695312 42.976562 16.230469 42.996094 15.953125 43.292969 C 15.679688 43.589844 15.695312 44.050781 15.996094 44.324219 C 17.507812 45.726562 19.140625 47.105469 20.84375 48.425781 C 26.464844 52.777344 32.933594 56.597656 40.625 60.109375 C 40.722656 60.15625 40.828125 60.175781 40.929688 60.175781 Z M 40.929688 60.175781 " fill-opacity="1" fill-rule="nonzero"/><g clip-path="url(#fd35caad17)"><path fill="#000000" d="M 99.757812 44.691406 C 99.773438 44.691406 99.792969 44.691406 99.8125 44.6875 L 148.5 41.003906 C 148.875 40.976562 149.167969 40.667969 149.175781 40.292969 C 149.183594 39.914062 148.90625 39.59375 148.535156 39.546875 L 93.652344 32.71875 C 93.375 32.683594 93.101562 32.808594 92.949219 33.042969 C 92.796875 33.277344 92.789062 33.574219 92.929688 33.816406 L 99.125 44.328125 C 99.257812 44.554688 99.5 44.691406 99.757812 44.691406 Z M 141.09375 40.097656 L 100.15625 43.195312 L 94.949219 34.355469 Z M 141.09375 40.097656 " fill-opacity="1" fill-rule="nonzero"/></g><g clip-path="url(#531dbbfd32)"><path fill="#000000" d="M 113.777344 72.765625 C 113.957031 72.765625 114.136719 72.699219 114.273438 72.574219 L 148.941406 40.8125 C 149.1875 40.585938 149.25 40.21875 149.085938 39.925781 C 148.925781 39.628906 148.585938 39.480469 148.261719 39.566406 L 108.050781 49.863281 C 107.863281 49.910156 107.699219 50.03125 107.601562 50.199219 C 107.503906 50.367188 107.472656 50.566406 107.523438 50.753906 L 113.066406 72.21875 C 113.128906 72.464844 113.320312 72.664062 113.566406 72.734375 C 113.636719 72.757812 113.707031 72.765625 113.777344 72.765625 Z M 145.792969 41.707031 L 114.179688 70.671875 L 109.125 51.097656 Z M 145.792969 41.707031 " fill-opacity="1" fill-rule="nonzero"/></g><path fill="#000000" d="M 97.691406 62.792969 C 97.738281 62.792969 97.785156 62.789062 97.832031 62.78125 L 110.699219 60.304688 C 110.898438 60.265625 111.074219 60.144531 111.179688 59.976562 C 111.289062 59.804688 111.320312 59.597656 111.269531 59.402344 L 108.945312 50.386719 C 108.875 50.128906 108.671875 49.925781 108.410156 49.859375 C 108.148438 49.796875 107.875 49.878906 107.691406 50.078125 L 97.152344 61.566406 C 96.9375 61.800781 96.898438 62.144531 97.050781 62.417969 C 97.183594 62.652344 97.429688 62.792969 97.691406 62.792969 Z M 109.65625 59.015625 L 99.730469 60.925781 L 107.859375 52.0625 Z M 109.65625 59.015625 " fill-opacity="1" fill-rule="nonzero"/><g clip-path="url(#adc4042a74)"><path fill="#000000" d="M 97.691406 62.792969 C 97.894531 62.792969 98.089844 62.710938 98.234375 62.554688 L 108.625 51.226562 L 148.625 40.980469 C 148.992188 40.886719 149.230469 40.527344 149.167969 40.152344 C 149.105469 39.78125 148.769531 39.511719 148.386719 39.542969 L 99.699219 43.230469 C 99.351562 43.257812 99.066406 43.527344 99.027344 43.875 L 96.960938 61.980469 C 96.925781 62.292969 97.097656 62.597656 97.386719 62.726562 C 97.484375 62.773438 97.589844 62.792969 97.691406 62.792969 Z M 140.1875 41.632812 L 108.050781 49.863281 C 107.910156 49.898438 107.789062 49.972656 107.691406 50.078125 L 98.675781 59.90625 L 100.417969 44.644531 Z M 140.1875 41.632812 " fill-opacity="1" fill-rule="nonzero"/></g><g clip-path="url(#503c591520)"><path fill="#000000" d="M 91.390625 63.660156 C 91.765625 63.660156 92.089844 63.371094 92.121094 62.988281 C 92.152344 62.585938 91.851562 62.234375 91.449219 62.199219 C 91.425781 62.199219 89.105469 62.003906 85.28125 61.390625 C 84.878906 61.328125 84.503906 61.597656 84.441406 61.996094 C 84.375 62.394531 84.648438 62.769531 85.046875 62.835938 C 88.9375 63.457031 91.234375 63.648438 91.328125 63.65625 C 91.347656 63.660156 91.371094 63.660156 91.390625 63.660156 Z M 79.015625 61.714844 C 79.355469 61.714844 79.664062 61.476562 79.734375 61.132812 C 79.816406 60.738281 79.5625 60.347656 79.164062 60.269531 C 77.148438 59.851562 75.109375 59.386719 73.101562 58.886719 C 72.707031 58.789062 72.308594 59.027344 72.210938 59.417969 C 72.113281 59.8125 72.351562 60.207031 72.746094 60.304688 C 74.773438 60.8125 76.832031 61.28125 78.867188 61.699219 C 78.917969 61.710938 78.96875 61.714844 79.015625 61.714844 Z M 66.894531 58.691406 C 67.214844 58.691406 67.503906 58.484375 67.601562 58.164062 C 67.714844 57.777344 67.492188 57.371094 67.105469 57.257812 C 65.109375 56.671875 63.117188 56.039062 61.183594 55.378906 C 60.800781 55.246094 60.382812 55.449219 60.25 55.832031 C 60.117188 56.214844 60.324219 56.632812 60.707031 56.761719 C 62.660156 57.429688 64.675781 58.066406 66.6875 58.660156 C 66.757812 58.679688 66.828125 58.691406 66.894531 58.691406 Z M 55.085938 54.652344 C 55.378906 54.652344 55.652344 54.476562 55.765625 54.1875 C 55.914062 53.8125 55.730469 53.386719 55.351562 53.238281 C 53.414062 52.476562 51.492188 51.664062 49.636719 50.828125 C 49.265625 50.664062 48.832031 50.828125 48.664062 51.195312 C 48.5 51.5625 48.660156 51.996094 49.03125 52.164062 C 50.910156 53.007812 52.855469 53.828125 54.816406 54.597656 C 54.902344 54.632812 54.996094 54.652344 55.085938 54.652344 Z M 43.714844 49.519531 C 43.980469 49.519531 44.234375 49.375 44.367188 49.125 C 44.550781 48.765625 44.410156 48.324219 44.050781 48.136719 C 42.199219 47.183594 40.375 46.179688 38.625 45.148438 C 38.277344 44.941406 37.828125 45.058594 37.621094 45.40625 C 37.414062 45.753906 37.53125 46.203125 37.882812 46.410156 C 39.652344 47.453125 41.5 48.472656 43.378906 49.4375 C 43.484375 49.492188 43.601562 49.519531 43.714844 49.519531 Z M 32.980469 43.183594 C 33.214844 43.183594 33.445312 43.074219 33.589844 42.863281 C 33.816406 42.527344 33.726562 42.074219 33.390625 41.847656 C 31.667969 40.683594 29.984375 39.464844 28.386719 38.222656 C 28.066406 37.972656 27.605469 38.03125 27.355469 38.347656 C 27.105469 38.667969 27.164062 39.128906 27.484375 39.375 C 29.105469 40.636719 30.816406 41.875 32.570312 43.058594 C 32.695312 43.144531 32.839844 43.183594 32.980469 43.183594 Z M 23.15625 35.535156 C 23.359375 35.535156 23.558594 35.457031 23.703125 35.292969 C 23.972656 34.996094 23.949219 34.53125 23.648438 34.261719 C 22.109375 32.875 20.621094 31.429688 19.226562 29.964844 C 18.949219 29.671875 18.484375 29.660156 18.1875 29.9375 C 17.894531 30.214844 17.882812 30.679688 18.164062 30.972656 C 19.585938 32.464844 21.097656 33.9375 22.664062 35.347656 C 22.808594 35.472656 22.984375 35.535156 23.15625 35.535156 Z M 14.59375 26.523438 C 14.753906 26.523438 14.917969 26.472656 15.054688 26.363281 C 15.367188 26.109375 15.417969 25.648438 15.164062 25.332031 C 13.875 23.734375 12.644531 22.066406 11.507812 20.382812 C 11.28125 20.046875 10.828125 19.960938 10.492188 20.183594 C 10.15625 20.410156 10.066406 20.863281 10.292969 21.199219 C 11.449219 22.917969 12.707031 24.617188 14.023438 26.25 C 14.167969 26.429688 14.378906 26.523438 14.59375 26.523438 Z M 7.65625 16.226562 C 7.777344 16.226562 7.898438 16.195312 8.011719 16.132812 C 8.363281 15.9375 8.492188 15.492188 8.296875 15.140625 C 7.3125 13.355469 6.390625 11.503906 5.5625 9.636719 C 5.398438 9.269531 4.964844 9.101562 4.59375 9.265625 C 4.222656 9.425781 4.058594 9.859375 4.222656 10.230469 C 5.066406 12.136719 6.003906 14.027344 7.015625 15.847656 C 7.148438 16.089844 7.398438 16.226562 7.65625 16.226562 Z M 2.625 4.882812 C 2.703125 4.882812 2.78125 4.871094 2.863281 4.84375 C 3.246094 4.714844 3.449219 4.296875 3.316406 3.914062 C 2.945312 2.832031 2.59375 1.71875 2.273438 0.613281 C 2.160156 0.222656 1.753906 0 1.363281 0.113281 C 0.976562 0.226562 0.75 0.632812 0.863281 1.019531 C 1.191406 2.148438 1.550781 3.28125 1.929688 4.390625 C 2.035156 4.691406 2.320312 4.882812 2.625 4.882812 Z M 2.625 4.882812 " fill-opacity="1" fill-rule="nonzero"/></g><path fill="#000000" d="M 40.929688 60.175781 C 41.207031 60.175781 41.472656 60.019531 41.597656 59.75 C 41.765625 59.382812 41.601562 58.949219 41.234375 58.78125 C 33.648438 55.316406 27.273438 51.550781 21.742188 47.269531 C 20.070312 45.976562 18.472656 44.625 16.992188 43.253906 C 16.695312 42.976562 16.230469 42.996094 15.953125 43.292969 C 15.679688 43.589844 15.695312 44.050781 15.996094 44.324219 C 17.507812 45.726562 19.140625 47.105469 20.84375 48.425781 C 26.464844 52.777344 32.933594 56.597656 40.625 60.109375 C 40.722656 60.15625 40.828125 60.175781 40.929688 60.175781 Z M 40.929688 60.175781 " fill-opacity="1" fill-rule="nonzero"/></svg>