<svg id="visual" viewBox="0 0 900 600" width="900" height="600" xmlns="http://www.w3.org/2000/svg" xmlns:xlink="http://www.w3.org/1999/xlink" version="1.1"><path d="M0 16L21.5 14.7C43 13.3 86 10.7 128.8 11.5C171.7 12.3 214.3 16.7 257.2 19.7C300 22.7 343 24.3 385.8 22.2C428.7 20 471.3 14 514.2 16.3C557 18.7 600 29.3 642.8 32.2C685.7 35 728.3 30 771.2 29.8C814 29.7 857 34.3 878.5 36.7L900 39L900 0L878.5 0C857 0 814 0 771.2 0C728.3 0 685.7 0 642.8 0C600 0 557 0 514.2 0C471.3 0 428.7 0 385.8 0C343 0 300 0 257.2 0C214.3 0 171.7 0 128.8 0C86 0 43 0 21.5 0L0 0Z" fill="#fff" stroke-linecap="round" stroke-linejoin="miter"></path></svg>