<svg id="visual" viewBox="0 0 900 600" width="900" height="600" xmlns="http://www.w3.org/2000/svg" xmlns:xlink="http://www.w3.org/1999/xlink" version="1.1"><path d="M0 47L21.5 42C43 37 86 27 128.8 20.7C171.7 14.3 214.3 11.7 257.2 15.5C300 19.3 343 29.7 385.8 34.2C428.7 38.7 471.3 37.3 514.2 38.8C557 40.3 600 44.7 642.8 45.7C685.7 46.7 728.3 44.3 771.2 41.3C814 38.3 857 34.7 878.5 32.8L900 31L900 0L878.5 0C857 0 814 0 771.2 0C728.3 0 685.7 0 642.8 0C600 0 557 0 514.2 0C471.3 0 428.7 0 385.8 0C343 0 300 0 257.2 0C214.3 0 171.7 0 128.8 0C86 0 43 0 21.5 0L0 0Z" fill="#f0fdf4" stroke-linecap="round" stroke-linejoin="miter"></path></svg>