<svg id="visual" viewBox="0 0 900 600" width="900" height="600" xmlns="http://www.w3.org/2000/svg" xmlns:xlink="http://www.w3.org/1999/xlink" version="1.1"><path d="M0 551L21.5 556C43 561 86 571 128.8 577.3C171.7 583.7 214.3 586.3 257.2 582.5C300 578.7 343 568.3 385.8 563.8C428.7 559.3 471.3 560.7 514.2 559.2C557 557.7 600 553.3 642.8 552.3C685.7 551.3 728.3 553.7 771.2 556.7C814 559.7 857 563.3 878.5 565.2L900 567L900 601L878.5 601C857 601 814 601 771.2 601C728.3 601 685.7 601 642.8 601C600 601 557 601 514.2 601C471.3 601 428.7 601 385.8 601C343 601 300 601 257.2 601C214.3 601 171.7 601 128.8 601C86 601 43 601 21.5 601L0 601Z" fill="#f0fdf4" stroke-linecap="round" stroke-linejoin="miter"></path></svg>