<svg id="visual" viewBox="0 0 900 600" width="900" height="600" xmlns="http://www.w3.org/2000/svg" xmlns:xlink="http://www.w3.org/1999/xlink" version="1.1"><path d="M0 69L21.5 65C43 61 86 53 128.8 45.2C171.7 37.3 214.3 29.7 257.2 28.8C300 28 343 34 385.8 33.8C428.7 33.7 471.3 27.3 514.2 31.7C557 36 600 51 642.8 55.2C685.7 59.3 728.3 52.7 771.2 46.2C814 39.7 857 33.3 878.5 30.2L900 27L900 0L878.5 0C857 0 814 0 771.2 0C728.3 0 685.7 0 642.8 0C600 0 557 0 514.2 0C471.3 0 428.7 0 385.8 0C343 0 300 0 257.2 0C214.3 0 171.7 0 128.8 0C86 0 43 0 21.5 0L0 0Z" fill="#FFFFFF" stroke-linecap="round" stroke-linejoin="miter"></path></svg>