<svg id="visual" viewBox="0 0 900 600" width="900" height="600" xmlns="http://www.w3.org/2000/svg" xmlns:xlink="http://www.w3.org/1999/xlink" version="1.1"><path d="M0 63L21.5 64.5C43 66 86 69 128.8 68.7C171.7 68.3 214.3 64.7 257.2 60C300 55.3 343 49.7 385.8 43.5C428.7 37.3 471.3 30.7 514.2 36.7C557 42.7 600 61.3 642.8 66.7C685.7 72 728.3 64 771.2 58.3C814 52.7 857 49.3 878.5 47.7L900 46L900 0L878.5 0C857 0 814 0 771.2 0C728.3 0 685.7 0 642.8 0C600 0 557 0 514.2 0C471.3 0 428.7 0 385.8 0C343 0 300 0 257.2 0C214.3 0 171.7 0 128.8 0C86 0 43 0 21.5 0L0 0Z" fill="#f0fdf4" stroke-linecap="round" stroke-linejoin="miter"></path></svg>