<svg id="visual" viewBox="0 0 900 600" width="900" height="600" xmlns="http://www.w3.org/2000/svg" xmlns:xlink="http://www.w3.org/1999/xlink" version="1.1"><path d="M0 589L21.5 586.8C43 584.7 86 580.3 128.8 580C171.7 579.7 214.3 583.3 257.2 584.2C300 585 343 583 385.8 582.3C428.7 581.7 471.3 582.3 514.2 578C557 573.7 600 564.3 642.8 560C685.7 555.7 728.3 556.3 771.2 561.2C814 566 857 575 878.5 579.5L900 584L900 601L878.5 601C857 601 814 601 771.2 601C728.3 601 685.7 601 642.8 601C600 601 557 601 514.2 601C471.3 601 428.7 601 385.8 601C343 601 300 601 257.2 601C214.3 601 171.7 601 128.8 601C86 601 43 601 21.5 601L0 601Z" fill="#fff" stroke-linecap="round" stroke-linejoin="miter"></path></svg>